PathFileType	4	(X/Y/Z)	C:/Users/opensim2020/Desktop/walking_exp_matlab/subject03_walking07_straight_03.trc	
DataRate	CameraRate	NumFrames	NumMarkers	Units	OrigDataRate	OrigDataStartFrame	OrigNumFrames	
100.00	100.00	5	46	mm	100.00	2394	306	
Frame#	Time	LFHD			RFHD			LBHD			RBHD			C7			T10			CLAV			STRN			RBAK			LSHO			LUPA			LELB			LFRM			LWRA			LWRB			LFIN			RSHO			RUPA			RELB			RFRM			RWRA			RWRB			RFIN			LASI			RASI			LPSI			RPSI			LTHI			LKNE			LTIB			LANK			LHEE			LTOE			RTHI			RKNE			RTIB			RANK			RHEE			RTOE			*39			*40			*41			*42			*43			*44			*45			
		X1	Y1	Z1	X2	Y2	Z2	X3	Y3	Z3	X4	Y4	Z4	X5	Y5	Z5	X6	Y6	Z6	X7	Y7	Z7	X8	Y8	Z8	X9	Y9	Z9	X10	Y10	Z10	X11	Y11	Z11	X12	Y12	Z12	X13	Y13	Z13	X14	Y14	Z14	X15	Y15	Z15	X16	Y16	Z16	X17	Y17	Z17	X18	Y18	Z18	X19	Y19	Z19	X20	Y20	Z20	X21	Y21	Z21	X22	Y22	Z22	X23	Y23	Z23	X24	Y24	Z24	X25	Y25	Z25	X26	Y26	Z26	X27	Y27	Z27	X28	Y28	Z28	X29	Y29	Z29	X30	Y30	Z30	X31	Y31	Z31	X32	Y32	Z32	X33	Y33	Z33	X34	Y34	Z34	X35	Y35	Z35	X36	Y36	Z36	X37	Y37	Z37	X38	Y38	Z38	X39	Y39	Z39	X40	Y40	Z40	X41	Y41	Z41	X42	Y42	Z42	X43	Y43	Z43	X44	Y44	Z44	X45	Y45	Z45	X46	Y46	Z46	

230	2.290	1374.56421	900.75012	1615.60864	1507.41248	905.91595	1623.28088	1385.35425	771.74884	1575.82166	1515.40430	781.51306	1582.91907	1448.30469	741.14191	1418.33630	1449.34705	704.36487	1104.40479	1442.45813	861.14008	1339.36865	1439.47424	901.07208	1174.29272	1552.32996	691.80292	1246.19556	1288.53821	808.06274	1374.09521	1223.08228	781.62134	1174.76953	1213.86548	779.10272	1051.21411	1213.71753	796.45984	921.86823	1243.76208	809.56653	802.61292	1194.65588	782.58112	809.57281	1204.51221	792.62762	725.38837	1603.30042	828.08447	1368.13025	1686.24414	870.36389	1156.00232	1702.18506	914.20947	1053.81433	1700.91956	976.55157	932.23694	1659.38257	1034.29639	854.53729	1705.36523	1011.27893	838.11621	1692.75842	1058.90356	782.40668	1334.51343	875.93500	940.07184	1572.49707	870.10382	944.04999	1378.69104	712.09192	955.40765	1527.53296	709.29797	973.02789	1281.64417	892.08521	644.14520	1311.49341	960.73254	479.46057	1307.49207	947.17053	284.98883	1339.39307	975.26501	75.82097	1381.98547	943.34106	37.03681	1347.08582	1124.72034	53.54068	1608.95520	782.73828	653.56317	1575.09363	767.72601	474.40292	1574.10583	689.55890	297.35709	1521.66174	633.66882	87.05942	1468.66016	589.28033	61.13266	1508.89954	773.01501	35.75270				1429.59924	821.84186	1679.54541															 
231	2.300	1373.76343	910.73535	1614.50793	1507.01257	916.12097	1622.47290	1384.58337	781.62622	1574.68457	1514.64136	791.46930	1581.96838	1447.72168	751.28931	1417.69556	1447.69067	713.77515	1103.62720	1441.95325	871.03625	1338.35645	1439.22937	910.57001	1173.18091	1551.45618	701.17932	1245.63281	1287.72839	818.30988	1373.12634	1222.28357	789.79803	1174.04663	1212.94189	785.67053	1050.51685	1212.68982	801.14240	920.98822	1242.96143	812.83337	801.65332	1193.85608	785.76990	808.83356	1203.84070	794.58441	724.44196	1602.54492	837.81482	1367.24951	1685.98462	880.77106	1155.66504	1701.76282	924.90674	1053.66675	1699.96191	988.83875	932.98035	1657.82813	1047.44482	856.24103	1703.87537	1024.84033	839.37207	1691.24463	1073.60449	784.85883	1334.16174	886.27173	938.72064	1572.26428	878.41119	943.24445	1376.87317	721.43494	954.06500	1525.77771	717.86420	972.01471	1281.21191	899.24127	641.61182	1312.53699	968.04382	477.22241	1307.52222	962.19659	283.63647	1337.52661	999.95038	75.48714	1379.85657	969.90826	35.66432	1345.20776	1150.87512	58.36091	1608.66223	789.23895	653.32959	1575.10144	773.15259	474.19510	1573.82764	692.83514	297.85757	1521.57361	634.32562	88.14823	1468.56592	589.71954	62.71091	1509.01587	773.15552	35.68577				1428.90637	831.79352	1678.56006															 
232	2.310	1372.72778	920.65967	1613.30701	1505.98035	925.92719	1621.37122	1383.71204	791.69525	1573.61365	1513.79016	801.41064	1580.99670	1446.81360	761.19348	1416.79968	1446.00684	723.20111	1102.66553	1441.34607	880.91431	1337.33386	1438.90039	920.13458	1172.06360	1550.50928	710.53461	1244.99133	1286.91113	828.73804	1372.14429	1221.78027	797.72211	1173.30127	1212.05591	792.30975	1049.77283	1211.74500	806.19800	920.06012	1241.93591	816.50525	800.45605	1193.03723	789.27539	808.06396	1203.15784	796.89667	723.54535	1601.75439	847.43201	1366.29785	1685.49207	890.86414	1155.16064	1701.25916	935.47357	1053.40796	1698.93469	1000.77728	933.54248	1656.33093	1060.29346	857.76166	1702.33191	1038.03381	840.46509	1689.35950	1087.56885	786.72552	1333.85645	896.88367	937.43738	1572.11963	886.87714	942.49988	1374.97839	732.08307	952.78516	1523.79626	726.56232	970.88861	1280.60522	906.60004	639.06024	1313.58997	975.26178	474.74396	1307.68164	976.20532	282.58170	1335.76062	1022.75873	75.74079	1377.93677	994.61285	34.45607	1343.43884	1174.93835	64.08607	1608.32471	795.85150	653.08215	1575.07153	778.84100	473.88910	1573.71753	696.26001	298.40454	1521.48962	635.00665	89.30701	1468.46362	590.14862	64.39388	1509.07983	773.32190	35.63963				1427.93921	841.85834	1677.44922															 
233	2.320	1371.83923	930.71277	1612.10217	1505.24438	935.98785	1620.42700	1382.82104	801.75769	1572.44397	1512.84619	811.43030	1580.02429	1445.88330	771.13965	1415.99890	1443.74402	731.77502	1101.63513	1440.73340	890.86615	1336.33789	1438.60840	929.88800	1171.03101	1549.39807	719.95398	1244.22754	1286.02625	839.13000	1371.16101	1220.87842	806.36993	1172.43945	1211.23474	799.33667	1049.03540	1210.78430	811.68176	919.08789	1240.98889	820.47455	799.44257	1192.09631	793.25592	807.35156	1202.30969	799.59247	722.68121	1600.94360	856.99432	1365.32471	1684.72241	900.61987	1154.40784	1700.66309	945.81097	1053.02075	1697.82605	1012.40802	933.94299	1654.94495	1072.74414	859.18311	1700.83105	1050.78882	841.29620	1687.63428	1101.16821	788.52496	1333.42676	907.42670	936.10107	1571.56360	895.18591	941.60260	1372.98816	742.13702	951.42981	1521.71472	735.44843	969.76648	1279.79614	914.28430	636.50214	1314.78308	982.78192	472.57922	1307.83801	989.47083	281.84821	1334.15771	1043.53528	76.41093	1376.33130	1017.45776	33.75932	1341.89063	1196.70007	69.67123	1607.94434	802.67810	652.65814	1574.98389	784.82550	473.43024	1573.43726	700.07776	298.76395	1521.52612	635.81042	90.49917	1468.43652	590.55682	66.18246	1509.13269	773.45245	35.58565				1427.11377	851.91138	1676.44299															 
234	2.330	1371.02026	940.87512	1610.96301	1504.50317	946.10443	1619.51343	1381.84497	811.83325	1571.43335	1511.95178	821.36646	1579.15942	1444.74377	780.92212	1414.94617	1442.32129	742.54108	1100.72131	1440.05029	900.83606	1335.36975	1438.22461	939.72235	1170.01514	1548.12488	729.36847	1243.39978	1285.05627	849.69574	1370.17310	1219.94897	815.39178	1171.57434	1210.30798	806.73187	1048.35852	1209.98816	817.54871	918.17242	1240.03125	824.78619	798.43829	1191.13879	797.60437	806.63904	1201.51257	802.64240	721.82709	1600.08105	866.44781	1364.32507	1683.99182	910.49792	1153.74524	1699.94519	955.95740	1052.51025	1696.74194	1023.72900	934.19543	1653.59753	1084.92969	860.31897	1699.29712	1063.11658	841.88647	1686.09229	1114.27209	790.13080	1333.05872	918.15198	934.89337	1570.60791	903.41357	940.75610	1370.88953	752.51923	950.55682	1519.58447	744.47528	968.58948	1278.67310	922.55176	634.21887	1316.05786	990.43433	470.55765	1307.92407	1002.05090	281.44122	1332.88062	1062.37292	77.31821	1374.22339	1037.32178	33.61011	1340.76306	1216.23535	74.46523	1607.53491	809.72394	652.15704	1574.70435	791.14557	472.77106	1573.28528	704.12958	299.17096	1521.43347	636.65521	91.84472	1468.40161	591.05750	68.06809	1509.18359	773.55481	35.52616				1425.96155	862.03802	1675.34619															 
